# Blender v3.0.1 OBJ File: 'rocket.blend'
# www.blender.org
mtllib rocket.mtl
o Rocket_Cube
v 1.000000 1.000000 -1.000000
v 1.000000 -1.000000 -1.000000
v 1.000000 1.000000 1.000000
v 1.000000 -1.000000 1.000000
v -1.000000 1.000000 -1.000000
v -1.000000 -1.000000 -1.000000
v -1.000000 1.000000 1.000000
v -1.000000 -1.000000 1.000000
v 0.000000 1.000000 -1.000000
v 0.000000 3.000000 -1.000000
v 0.195090 1.000000 -0.980785
v 0.195090 3.000000 -0.980785
v 0.382683 1.000000 -0.923880
v 0.382683 3.000000 -0.923880
v 0.555570 1.000000 -0.831470
v 0.555570 3.000000 -0.831470
v 0.707107 1.000000 -0.707107
v 0.707107 3.000000 -0.707107
v 0.831470 1.000000 -0.555570
v 0.831470 3.000000 -0.555570
v 0.923880 1.000000 -0.382683
v 0.923880 3.000000 -0.382683
v 0.980785 1.000000 -0.195090
v 0.980785 3.000000 -0.195090
v 1.000000 1.000000 0.000000
v 1.000000 3.000000 0.000000
v 0.980785 1.000000 0.195090
v 0.980785 3.000000 0.195090
v 0.923880 1.000000 0.382683
v 0.923880 3.000000 0.382683
v 0.831470 1.000000 0.555570
v 0.831470 3.000000 0.555570
v 0.707107 1.000000 0.707107
v 0.707107 3.000000 0.707107
v 0.555570 1.000000 0.831470
v 0.555570 3.000000 0.831470
v 0.382683 1.000000 0.923880
v 0.382683 3.000000 0.923880
v 0.195090 1.000000 0.980785
v 0.195090 3.000000 0.980785
v -0.000000 1.000000 1.000000
v -0.000000 3.000000 1.000000
v -0.195090 1.000000 0.980785
v -0.195090 3.000000 0.980785
v -0.382683 1.000000 0.923880
v -0.382683 3.000000 0.923880
v -0.555570 1.000000 0.831470
v -0.555570 3.000000 0.831470
v -0.707107 1.000000 0.707107
v -0.707107 3.000000 0.707107
v -0.831469 1.000000 0.555570
v -0.831469 3.000000 0.555570
v -0.923880 1.000000 0.382684
v -0.923880 3.000000 0.382684
v -0.980785 1.000000 0.195090
v -0.980785 3.000000 0.195090
v -1.000000 1.000000 -0.000000
v -1.000000 3.000000 -0.000000
v -0.980785 1.000000 -0.195090
v -0.980785 3.000000 -0.195090
v -0.923879 1.000000 -0.382684
v -0.923879 3.000000 -0.382684
v -0.831470 1.000000 -0.555570
v -0.831470 3.000000 -0.555570
v -0.707107 1.000000 -0.707107
v -0.707107 3.000000 -0.707107
v -0.555570 1.000000 -0.831470
v -0.555570 3.000000 -0.831470
v -0.382683 1.000000 -0.923880
v -0.382683 3.000000 -0.923880
v -0.195090 1.000000 -0.980785
v -0.195090 3.000000 -0.980785
v -0.000000 3.000000 -1.200000
v 0.234108 3.000000 -1.176942
v 0.459220 3.000000 -1.108655
v 0.666684 3.000000 -0.997764
v 0.848528 3.000000 -0.848528
v 0.997764 3.000000 -0.666684
v 1.108655 3.000000 -0.459220
v 1.176942 3.000000 -0.234108
v 1.200000 3.000000 0.000000
v 1.176942 3.000000 0.234108
v 1.108656 3.000000 0.459220
v 0.997764 3.000000 0.666684
v 0.848528 3.000000 0.848528
v 0.666684 3.000000 0.997764
v 0.459220 3.000000 1.108655
v 0.234108 3.000000 1.176942
v -0.000000 3.000000 1.200000
v -0.234108 3.000000 1.176942
v -0.459220 3.000000 1.108655
v -0.666684 3.000000 0.997763
v -0.848528 3.000000 0.848528
v -0.997763 3.000000 0.666685
v -1.108655 3.000000 0.459220
v -1.176942 3.000000 0.234108
v -1.200000 3.000000 -0.000000
v -1.176942 3.000000 -0.234109
v -1.108655 3.000000 -0.459220
v -0.997764 3.000000 -0.666684
v -0.848528 3.000000 -0.848528
v -0.666684 3.000000 -0.997764
v -0.459220 3.000000 -1.108656
v -0.234108 3.000000 -1.176942
v -0.000000 5.000000 -0.000000
vt 0.625000 0.500000
vt 0.875000 0.500000
vt 0.875000 0.750000
vt 0.625000 0.750000
vt 0.375000 0.750000
vt 0.625000 1.000000
vt 0.375000 1.000000
vt 0.375000 0.000000
vt 0.625000 0.000000
vt 0.625000 0.250000
vt 0.375000 0.250000
vt 0.125000 0.500000
vt 0.375000 0.500000
vt 0.125000 0.750000
vt 1.000000 0.500000
vt 1.000000 1.000000
vt 0.968750 1.000000
vt 0.968750 0.500000
vt 0.080294 0.080294
vt 0.250000 0.250000
vt 0.050447 0.116663
vt 0.485388 0.203178
vt 0.471731 0.158156
vt 0.937500 1.000000
vt 0.937500 0.500000
vt 0.116663 0.050447
vt 0.906250 1.000000
vt 0.906250 0.500000
vt 0.875000 1.000000
vt 0.875000 0.500000
vt 0.490000 0.250000
vt 0.843750 1.000000
vt 0.843750 0.500000
vt 0.158156 0.028269
vt 0.812500 1.000000
vt 0.812500 0.500000
vt 0.781250 1.000000
vt 0.781250 0.500000
vt 0.485388 0.296822
vt 0.750000 1.000000
vt 0.750000 0.500000
vt 0.203178 0.014612
vt 0.718750 1.000000
vt 0.718750 0.500000
vt 0.687500 1.000000
vt 0.687500 0.500000
vt 0.471731 0.341844
vt 0.656250 1.000000
vt 0.656250 0.500000
vt 0.250000 0.010000
vt 0.625000 1.000000
vt 0.625000 0.500000
vt 0.593750 1.000000
vt 0.593750 0.500000
vt 0.449553 0.383337
vt 0.562500 1.000000
vt 0.562500 0.500000
vt 0.296822 0.014612
vt 0.531250 1.000000
vt 0.531250 0.500000
vt 0.500000 1.000000
vt 0.500000 0.500000
vt 0.419706 0.419706
vt 0.468750 1.000000
vt 0.468750 0.500000
vt 0.341844 0.028269
vt 0.437500 1.000000
vt 0.437500 0.500000
vt 0.406250 1.000000
vt 0.406250 0.500000
vt 0.383337 0.449553
vt 0.375000 1.000000
vt 0.375000 0.500000
vt 0.383337 0.050447
vt 0.343750 1.000000
vt 0.343750 0.500000
vt 0.312500 1.000000
vt 0.312500 0.500000
vt 0.341844 0.471731
vt 0.281250 1.000000
vt 0.281250 0.500000
vt 0.419706 0.080294
vt 0.250000 1.000000
vt 0.250000 0.500000
vt 0.218750 1.000000
vt 0.218750 0.500000
vt 0.296822 0.485388
vt 0.187500 1.000000
vt 0.187500 0.500000
vt 0.449553 0.116663
vt 0.156250 1.000000
vt 0.156250 0.500000
vt 0.125000 1.000000
vt 0.125000 0.500000
vt 0.250000 0.490000
vt 0.093750 1.000000
vt 0.093750 0.500000
vt 0.062500 1.000000
vt 0.062500 0.500000
vt 0.296822 0.485388
vt 0.250000 0.490000
vt 0.203178 0.485388
vt 0.158156 0.471731
vt 0.116663 0.449553
vt 0.080294 0.419706
vt 0.050447 0.383337
vt 0.028269 0.341844
vt 0.014612 0.296822
vt 0.010000 0.250000
vt 0.014612 0.203178
vt 0.028269 0.158156
vt 0.050447 0.116663
vt 0.080294 0.080294
vt 0.116663 0.050447
vt 0.158156 0.028269
vt 0.203178 0.014612
vt 0.250000 0.010000
vt 0.296822 0.014612
vt 0.341844 0.028269
vt 0.383337 0.050447
vt 0.419706 0.080294
vt 0.449553 0.116663
vt 0.471731 0.158156
vt 0.485388 0.203178
vt 0.490000 0.250000
vt 0.485388 0.296822
vt 0.471731 0.341844
vt 0.449553 0.383337
vt 0.419706 0.419706
vt 0.383337 0.449553
vt 0.341844 0.471731
vt 0.031250 1.000000
vt 0.031250 0.500000
vt 0.000000 1.000000
vt 0.000000 0.500000
vt 0.750000 0.490000
vt 0.796822 0.485388
vt 0.841844 0.471731
vt 0.883337 0.449553
vt 0.919706 0.419706
vt 0.949553 0.383337
vt 0.971731 0.341844
vt 0.985388 0.296822
vt 0.990000 0.250000
vt 0.985388 0.203178
vt 0.971731 0.158156
vt 0.949553 0.116663
vt 0.919706 0.080294
vt 0.883337 0.050447
vt 0.841844 0.028269
vt 0.796822 0.014612
vt 0.750000 0.010000
vt 0.703178 0.014612
vt 0.658156 0.028269
vt 0.616663 0.050447
vt 0.580294 0.080294
vt 0.550447 0.116663
vt 0.528269 0.158156
vt 0.514612 0.203178
vt 0.510000 0.250000
vt 0.514612 0.296822
vt 0.528269 0.341844
vt 0.550447 0.383337
vt 0.580294 0.419706
vt 0.616663 0.449553
vt 0.658156 0.471731
vt 0.703178 0.485388
vt 0.028269 0.158156
vt 0.014612 0.203178
vt 0.010000 0.250000
vt 0.014612 0.296822
vt 0.028269 0.341844
vt 0.050447 0.383337
vt 0.080294 0.419706
vt 0.116663 0.449553
vt 0.158156 0.471731
vt 0.971731 0.158156
vt 0.949553 0.116663
vt 0.919706 0.080294
vt 0.883337 0.050447
vt 0.841844 0.028269
vt 0.796822 0.014612
vt 0.750000 0.010000
vt 0.703178 0.014612
vt 0.658156 0.028269
vt 0.616663 0.050447
vt 0.580294 0.080294
vt 0.550447 0.116663
vt 0.528269 0.158156
vt 0.514612 0.203178
vt 0.510000 0.250000
vt 0.514612 0.296822
vt 0.528269 0.341844
vt 0.550447 0.383337
vt 0.580294 0.419706
vt 0.616663 0.449553
vt 0.658156 0.471731
vt 0.703178 0.485388
vt 0.750000 0.490000
vt 0.796822 0.485388
vt 0.841844 0.471731
vt 0.883337 0.449553
vt 0.919706 0.419706
vt 0.949553 0.383337
vt 0.971731 0.341844
vt 0.985388 0.296822
vt 0.990000 0.250000
vt 0.985388 0.203178
vt 0.203178 0.485388
vn 0.0000 1.0000 0.0000
vn 0.0000 0.0000 1.0000
vn -1.0000 0.0000 0.0000
vn 0.0000 -1.0000 0.0000
vn 1.0000 0.0000 0.0000
vn 0.0000 0.0000 -1.0000
vn 0.0980 0.0000 -0.9952
vn -0.6637 0.5127 0.5447
vn 0.8216 0.5127 0.2492
vn 0.2903 0.0000 -0.9569
vn -0.5447 0.5127 0.6637
vn 0.4714 0.0000 -0.8819
vn 0.6344 0.0000 -0.7730
vn 0.8545 0.5127 0.0842
vn 0.7730 0.0000 -0.6344
vn -0.4047 0.5127 0.7572
vn 0.8819 0.0000 -0.4714
vn 0.9569 0.0000 -0.2903
vn 0.8545 0.5127 -0.0842
vn 0.9952 0.0000 -0.0980
vn -0.2492 0.5127 0.8216
vn 0.9952 0.0000 0.0980
vn 0.9569 0.0000 0.2903
vn 0.8216 0.5127 -0.2492
vn 0.8819 0.0000 0.4714
vn -0.0842 0.5127 0.8545
vn 0.7730 0.0000 0.6344
vn 0.6344 0.0000 0.7730
vn 0.7572 0.5127 -0.4047
vn 0.4714 0.0000 0.8819
vn 0.0842 0.5127 0.8545
vn 0.2903 0.0000 0.9569
vn 0.0980 0.0000 0.9952
vn 0.6637 0.5127 -0.5447
vn -0.0980 0.0000 0.9952
vn 0.2492 0.5127 0.8216
vn -0.2903 0.0000 0.9569
vn -0.4714 0.0000 0.8819
vn 0.5447 0.5127 -0.6637
vn -0.6344 0.0000 0.7730
vn 0.4047 0.5127 0.7572
vn -0.7730 0.0000 0.6344
vn -0.8819 0.0000 0.4714
vn 0.4047 0.5127 -0.7572
vn -0.9569 0.0000 0.2903
vn 0.5447 0.5127 0.6637
vn -0.9952 0.0000 0.0980
vn -0.9952 0.0000 -0.0980
vn 0.2492 0.5127 -0.8216
vn -0.9569 0.0000 -0.2903
vn 0.6637 0.5127 0.5447
vn -0.8819 0.0000 -0.4714
vn -0.7730 0.0000 -0.6344
vn 0.0842 0.5127 -0.8545
vn -0.6344 0.0000 -0.7730
vn 0.7572 0.5127 0.4047
vn -0.4714 0.0000 -0.8819
vn -0.2903 0.0000 -0.9569
vn -0.0980 0.0000 -0.9952
vn -0.7572 0.5127 0.4047
vn -0.8216 0.5127 0.2492
vn -0.8545 0.5127 0.0842
vn -0.8545 0.5127 -0.0842
vn -0.8216 0.5127 -0.2492
vn -0.7572 0.5127 -0.4047
vn -0.6637 0.5127 -0.5447
vn -0.5447 0.5127 -0.6637
vn -0.4047 0.5127 -0.7572
vn -0.2492 0.5127 -0.8216
vn -0.0842 0.5127 -0.8545
usemtl Material
s off
f 1/1/1 5/2/1 7/3/1 3/4/1
f 4/5/2 3/4/2 7/6/2 8/7/2
f 8/8/3 7/9/3 5/10/3 6/11/3
f 6/12/4 2/13/4 4/5/4 8/14/4
f 2/13/5 1/1/5 3/4/5 4/5/5
f 6/11/6 5/10/6 1/1/6 2/13/6
f 9/15/7 10/16/7 12/17/7 11/18/7
f 93/19/8 105/20/8 94/21/8
f 82/22/9 105/20/9 83/23/9
f 11/18/10 12/17/10 14/24/10 13/25/10
f 92/26/11 105/20/11 93/19/11
f 13/25/12 14/24/12 16/27/12 15/28/12
f 15/28/13 16/27/13 18/29/13 17/30/13
f 81/31/14 105/20/14 82/22/14
f 17/30/15 18/29/15 20/32/15 19/33/15
f 91/34/16 105/20/16 92/26/16
f 19/33/17 20/32/17 22/35/17 21/36/17
f 21/36/18 22/35/18 24/37/18 23/38/18
f 80/39/19 105/20/19 81/31/19
f 23/38/20 24/37/20 26/40/20 25/41/20
f 90/42/21 105/20/21 91/34/21
f 25/41/22 26/40/22 28/43/22 27/44/22
f 27/44/23 28/43/23 30/45/23 29/46/23
f 79/47/24 105/20/24 80/39/24
f 29/46/25 30/45/25 32/48/25 31/49/25
f 89/50/26 105/20/26 90/42/26
f 31/49/27 32/48/27 34/51/27 33/52/27
f 33/52/28 34/51/28 36/53/28 35/54/28
f 78/55/29 105/20/29 79/47/29
f 35/54/30 36/53/30 38/56/30 37/57/30
f 88/58/31 105/20/31 89/50/31
f 37/57/32 38/56/32 40/59/32 39/60/32
f 39/60/33 40/59/33 42/61/33 41/62/33
f 77/63/34 105/20/34 78/55/34
f 41/62/35 42/61/35 44/64/35 43/65/35
f 87/66/36 105/20/36 88/58/36
f 43/65/37 44/64/37 46/67/37 45/68/37
f 45/68/38 46/67/38 48/69/38 47/70/38
f 76/71/39 105/20/39 77/63/39
f 47/70/40 48/69/40 50/72/40 49/73/40
f 86/74/41 105/20/41 87/66/41
f 49/73/42 50/72/42 52/75/42 51/76/42
f 51/76/43 52/75/43 54/77/43 53/78/43
f 75/79/44 105/20/44 76/71/44
f 53/78/45 54/77/45 56/80/45 55/81/45
f 85/82/46 105/20/46 86/74/46
f 55/81/47 56/80/47 58/83/47 57/84/47
f 57/84/48 58/83/48 60/85/48 59/86/48
f 74/87/49 105/20/49 75/79/49
f 59/86/50 60/85/50 62/88/50 61/89/50
f 84/90/51 105/20/51 85/82/51
f 61/89/52 62/88/52 64/91/52 63/92/52
f 63/92/53 64/91/53 66/93/53 65/94/53
f 73/95/54 105/20/54 74/87/54
f 65/94/55 66/93/55 68/96/55 67/97/55
f 83/23/56 105/20/56 84/90/56
f 67/97/57 68/96/57 70/98/57 69/99/57
f 12/100/1 10/101/1 72/102/1 70/103/1 68/104/1 66/105/1 64/106/1 62/107/1 60/108/1 58/109/1 56/110/1 54/111/1 52/112/1 50/113/1 48/114/1 46/115/1 44/116/1 42/117/1 40/118/1 38/119/1 36/120/1 34/121/1 32/122/1 30/123/1 28/124/1 26/125/1 24/126/1 22/127/1 20/128/1 18/129/1 16/130/1 14/131/1
f 69/99/58 70/98/58 72/132/58 71/133/58
f 71/133/59 72/132/59 10/134/59 9/135/59
f 9/136/4 11/137/4 13/138/4 15/139/4 17/140/4 19/141/4 21/142/4 23/143/4 25/144/4 27/145/4 29/146/4 31/147/4 33/148/4 35/149/4 37/150/4 39/151/4 41/152/4 43/153/4 45/154/4 47/155/4 49/156/4 51/157/4 53/158/4 55/159/4 57/160/4 59/161/4 61/162/4 63/163/4 65/164/4 67/165/4 69/166/4 71/167/4
f 94/21/60 105/20/60 95/168/60
f 95/168/61 105/20/61 96/169/61
f 96/169/62 105/20/62 97/170/62
f 97/170/63 105/20/63 98/171/63
f 98/171/64 105/20/64 99/172/64
f 99/172/65 105/20/65 100/173/65
f 100/173/66 105/20/66 101/174/66
f 101/174/67 105/20/67 102/175/67
f 102/175/68 105/20/68 103/176/68
f 83/177/4 84/178/4 85/179/4 86/180/4 87/181/4 88/182/4 89/183/4 90/184/4 91/185/4 92/186/4 93/187/4 94/188/4 95/189/4 96/190/4 97/191/4 98/192/4 99/193/4 100/194/4 101/195/4 102/196/4 103/197/4 104/198/4 73/199/4 74/200/4 75/201/4 76/202/4 77/203/4 78/204/4 79/205/4 80/206/4 81/207/4 82/208/4
f 103/176/69 105/20/69 104/209/69
f 104/209/70 105/20/70 73/95/70
